<?xml version="1.0" encoding="UTF-8" standalone="no"?><svg xmlns="http://www.w3.org/2000/svg" xmlns:xlink="http://www.w3.org/1999/xlink" contentScriptType="application/ecmascript" contentStyleType="text/css" height="201px" preserveAspectRatio="none" style="width:268px;height:201px;" version="1.1" viewBox="0 0 268 201" width="268px" zoomAndPan="magnify"><defs><filter height="300%" id="f1683cc9is2q5m" width="300%" x="-1" y="-1"><feGaussianBlur result="blurOut" stdDeviation="2.0"/><feColorMatrix in="blurOut" result="blurOut2" type="matrix" values="0 0 0 0 0 0 0 0 0 0 0 0 0 0 0 0 0 0 .4 0"/><feOffset dx="4.0" dy="4.0" in="blurOut2" result="blurOut3"/><feBlend in="SourceGraphic" in2="blurOut3" mode="normal"/></filter></defs><g><rect fill="#FEFECE" filter="url(#f1683cc9is2q5m)" height="34.1328" rx="12.5" ry="12.5" style="stroke: #A80036; stroke-width: 1.5;" width="44" x="119.5" y="8"/><text fill="#000000" font-family="sans-serif" font-size="12" lengthAdjust="spacingAndGlyphs" textLength="24" x="129.5" y="29.6016">Plan</text><rect fill="#FEFECE" filter="url(#f1683cc9is2q5m)" height="34.1328" rx="12.5" ry="12.5" style="stroke: #A80036; stroke-width: 1.5;" width="58" x="183.5" y="8"/><text fill="#000000" font-family="sans-serif" font-size="12" lengthAdjust="spacingAndGlyphs" textLength="38" x="193.5" y="29.6016">Collect</text><rect fill="#FEFECE" filter="url(#f1683cc9is2q5m)" height="34.1328" rx="12.5" ry="12.5" style="stroke: #A80036; stroke-width: 1.5;" width="59" x="183" y="82"/><text fill="#000000" font-family="sans-serif" font-size="12" lengthAdjust="spacingAndGlyphs" textLength="39" x="193" y="103.6016">Assure</text><rect fill="#FEFECE" filter="url(#f1683cc9is2q5m)" height="34.1328" rx="12.5" ry="12.5" style="stroke: #A80036; stroke-width: 1.5;" width="71" x="186" y="156"/><text fill="#000000" font-family="sans-serif" font-size="12" lengthAdjust="spacingAndGlyphs" textLength="51" x="196" y="177.6016">Describe</text><rect fill="#FEFECE" filter="url(#f1683cc9is2q5m)" height="34.1328" rx="12.5" ry="12.5" style="stroke: #A80036; stroke-width: 1.5;" width="70" x="95.5" y="156"/><text fill="#000000" font-family="sans-serif" font-size="12" lengthAdjust="spacingAndGlyphs" textLength="50" x="105.5" y="177.6016">Preserve</text><rect fill="#FEFECE" filter="url(#f1683cc9is2q5m)" height="34.1328" rx="12.5" ry="12.5" style="stroke: #A80036; stroke-width: 1.5;" width="69" x="6" y="156"/><text fill="#000000" font-family="sans-serif" font-size="12" lengthAdjust="spacingAndGlyphs" textLength="49" x="16" y="177.6016">Discover</text><rect fill="#FEFECE" filter="url(#f1683cc9is2q5m)" height="34.1328" rx="12.5" ry="12.5" style="stroke: #A80036; stroke-width: 1.5;" width="71" x="22" y="82"/><text fill="#000000" font-family="sans-serif" font-size="12" lengthAdjust="spacingAndGlyphs" textLength="51" x="32" y="103.6016">Integrate</text><rect fill="#FEFECE" filter="url(#f1683cc9is2q5m)" height="34.1328" rx="12.5" ry="12.5" style="stroke: #A80036; stroke-width: 1.5;" width="65" x="34" y="8"/><text fill="#000000" font-family="sans-serif" font-size="12" lengthAdjust="spacingAndGlyphs" textLength="45" x="44" y="29.6016">Analyze</text><!--link Plan to Collect--><path d="M163.6875,25 C168.4484,25 173.2093,25 177.9702,25 " fill="none" id="Plan-Collect" style="stroke: #A80036; stroke-width: 1.0;"/><polygon fill="#A80036" points="183.1362,25,174.1362,21,178.1362,25,174.1362,29,183.1362,25" style="stroke: #A80036; stroke-width: 1.0;"/><!--link Collect to Assure--><path d="M212.5,42.1631 C212.5,52.4368 212.5,65.6075 212.5,76.6831 " fill="none" id="Collect-Assure" style="stroke: #A80036; stroke-width: 1.0;"/><polygon fill="#A80036" points="212.5,81.93,216.5,72.93,212.5,76.93,208.5,72.93,212.5,81.93" style="stroke: #A80036; stroke-width: 1.0;"/><!--link Assure to Describe--><path d="M214.5874,116.1631 C215.8369,126.4368 217.4388,139.6075 218.7858,150.6831 " fill="none" id="Assure-Describe" style="stroke: #A80036; stroke-width: 1.0;"/><polygon fill="#A80036" points="219.4239,155.93,222.308,146.5129,218.8202,150.9666,214.3665,147.4788,219.4239,155.93" style="stroke: #A80036; stroke-width: 1.0;"/><!--link Preserve to Describe--><path d="M170.7055,173 C175.7195,173 180.7336,173 185.7476,173 " fill="none" id="Preserve-Describe" style="stroke: #A80036; stroke-width: 1.0;"/><polygon fill="#A80036" points="165.6914,173,174.6914,177,170.6914,173,174.6914,169,165.6914,173" style="stroke: #A80036; stroke-width: 1.0;"/><!--link Discover to Preserve--><path d="M80.5736,173 C85.4292,173 90.2849,173 95.1405,173 " fill="none" id="Discover-Preserve" style="stroke: #A80036; stroke-width: 1.0;"/><polygon fill="#A80036" points="75.3047,173,84.3047,177,80.3047,173,84.3047,169,75.3047,173" style="stroke: #A80036; stroke-width: 1.0;"/><!--link Integrate to Discover--><path d="M52.4194,121.1155 C49.8578,132.2659 46.7991,145.5806 44.4215,155.93 " fill="none" id="Integrate-Discover" style="stroke: #A80036; stroke-width: 1.0;"/><polygon fill="#A80036" points="53.5571,116.1631,47.6434,124.0389,52.4375,121.0361,55.4403,125.8302,53.5571,116.1631" style="stroke: #A80036; stroke-width: 1.0;"/><!--link Analyze to Integrate--><path d="M63.7736,47.4174 C62.425,58.5056 60.8235,71.6738 59.5761,81.93 " fill="none" id="Analyze-Integrate" style="stroke: #A80036; stroke-width: 1.0;"/><polygon fill="#A80036" points="64.4126,42.1631,59.3552,50.6143,63.8089,47.1265,67.2967,51.5802,64.4126,42.1631" style="stroke: #A80036; stroke-width: 1.0;"/><!--link Analyze to Plan--><path d="M99.0195,25 C104.0807,25 109.1418,25 114.203,25 " fill="none" id="Analyze-Plan" style="stroke: #A80036; stroke-width: 1.0;"/><polygon fill="#A80036" points="119.2641,25,110.2641,21,114.2641,25,110.2641,29,119.2641,25" style="stroke: #A80036; stroke-width: 1.0;"/><!--link Assure to Analyze--><!--
@startuml

Plan -right-> Collect
-down-> Assure
-down-> Describe
-left-> Preserve
-left-> Discover
-up-> Integrate
-up-> Analyze

Analyze -right-> Plan

Assure -[hidden]-> Analyze



@enduml

PlantUML version 1.2018.14beta10(Unknown compile time)
(GPL source distribution)
Java Runtime: OpenJDK Runtime Environment
JVM: OpenJDK 64-Bit Server VM
Java Version: 11.0.1+13
Operating System: Mac OS X
OS Version: 10.13.6
Default Encoding: UTF-8
Language: en
Country: CH
--></g></svg>