<?xml version="1.0" encoding="UTF-8" standalone="no"?><svg xmlns="http://www.w3.org/2000/svg" xmlns:xlink="http://www.w3.org/1999/xlink" contentScriptType="application/ecmascript" contentStyleType="text/css" height="1175px" preserveAspectRatio="none" style="width:531px;height:1175px;" version="1.1" viewBox="0 0 531 1175" width="531px" zoomAndPan="magnify"><defs><filter height="300%" id="f15rxonwo1jz3k" width="300%" x="-1" y="-1"><feGaussianBlur result="blurOut" stdDeviation="2.0"/><feColorMatrix in="blurOut" result="blurOut2" type="matrix" values="0 0 0 0 0 0 0 0 0 0 0 0 0 0 0 0 0 0 .4 0"/><feOffset dx="4.0" dy="4.0" in="blurOut2" result="blurOut3"/><feBlend in="SourceGraphic" in2="blurOut3" mode="normal"/></filter></defs><g><!--class Project--><rect fill="#90EE90" filter="url(#f15rxonwo1jz3k)" height="73.9102" id="Project" style="stroke: #A80036; stroke-width: 1.5;" width="122" x="202" y="8"/><rect fill="#90EE90" height="32" style="stroke: #A80036; stroke-width: 1.5;" width="122" x="202" y="8"/><ellipse cx="239.5" cy="24" fill="#FF0000" rx="11" ry="11" style="stroke: #A80036; stroke-width: 1.0;"/><path d="M239.2935,19.6655 L239.2935,23.3013 L240.2979,23.3013 Q241.5015,23.3013 241.9871,22.8945 Q242.4727,22.4878 242.4727,21.4834 Q242.4727,20.479 241.9871,20.0723 Q241.5015,19.6655 240.2979,19.6655 Z M236.8447,17.6069 L240.2065,17.6069 Q242.7715,17.6069 243.8962,18.52 Q245.021,19.4331 245.021,21.4834 Q245.021,23.5337 243.8962,24.4468 Q242.7715,25.3599 240.2065,25.3599 L239.2935,25.3599 L239.2935,30 L236.8447,30 Z "/><text fill="#000000" font-family="sans-serif" font-size="12" lengthAdjust="spacingAndGlyphs" textLength="40" x="258.5" y="28.5352">Project</text><line style="stroke: #A80036; stroke-width: 1.5;" x1="203" x2="323" y1="40" y2="40"/><text fill="#000000" font-family="sans-serif" font-size="11" lengthAdjust="spacingAndGlyphs" textLength="101" x="208" y="54.6348">Project description</text><line style="stroke: #A80036; stroke-width: 1.5;" x1="203" x2="323" y1="60.9551" y2="60.9551"/><rect fill="#F24D5C" height="6" style="stroke: #C82930; stroke-width: 1.0;" width="6" x="210" y="69.9326"/><text fill="#000000" font-family="sans-serif" font-size="11" lengthAdjust="spacingAndGlyphs" textLength="96" x="222" y="75.5898">dataCite metadata</text><!--class Experiment_1--><rect fill="#FEFECE" filter="url(#f15rxonwo1jz3k)" height="73.9102" id="Experiment_1" style="stroke: #A80036; stroke-width: 1.5;" width="146" x="9" y="159"/><ellipse cx="39.3" cy="175" fill="#00FF00" rx="11" ry="11" style="stroke: #A80036; stroke-width: 1.0;"/><path d="M35.0139,168.6069 L37.9357,168.6069 L39.4133,174.0439 L40.8825,168.6069 L43.821,168.6069 L43.821,181 L41.7126,181 L41.7126,171.0723 L40.4011,176.4927 L38.4504,176.4927 L37.1223,171.0723 L37.1223,181 L35.0139,181 Z "/><text fill="#000000" font-family="sans-serif" font-size="12" lengthAdjust="spacingAndGlyphs" textLength="80" x="56.7" y="179.5352">Experiment_1</text><line style="stroke: #A80036; stroke-width: 1.5;" x1="10" x2="154" y1="191" y2="191"/><text fill="#000000" font-family="sans-serif" font-size="11" lengthAdjust="spacingAndGlyphs" textLength="134" x="15" y="205.6348">Experimental description</text><line style="stroke: #A80036; stroke-width: 1.5;" x1="10" x2="154" y1="211.9551" y2="211.9551"/><ellipse cx="20" cy="223.9326" fill="#84BE84" rx="3" ry="3" style="stroke: #038048; stroke-width: 1.0;"/><text fill="#000000" font-family="sans-serif" font-size="11" lengthAdjust="spacingAndGlyphs" textLength="61" x="29" y="226.5898">Experiment</text><!--class Experiment_n--><rect fill="#FEFECE" filter="url(#f15rxonwo1jz3k)" height="73.9102" id="Experiment_n" style="stroke: #A80036; stroke-width: 1.5;" width="146" x="190" y="159"/><ellipse cx="220.75" cy="175" fill="#00FF00" rx="11" ry="11" style="stroke: #A80036; stroke-width: 1.0;"/><path d="M216.4639,168.6069 L219.3857,168.6069 L220.8633,174.0439 L222.3325,168.6069 L225.271,168.6069 L225.271,181 L223.1626,181 L223.1626,171.0723 L221.8511,176.4927 L219.9004,176.4927 L218.5723,171.0723 L218.5723,181 L216.4639,181 Z "/><text fill="#000000" font-family="sans-serif" font-size="12" lengthAdjust="spacingAndGlyphs" textLength="79" x="238.25" y="179.5352">Experiment_n</text><line style="stroke: #A80036; stroke-width: 1.5;" x1="191" x2="335" y1="191" y2="191"/><text fill="#000000" font-family="sans-serif" font-size="11" lengthAdjust="spacingAndGlyphs" textLength="134" x="196" y="205.6348">Experimental description</text><line style="stroke: #A80036; stroke-width: 1.5;" x1="191" x2="335" y1="211.9551" y2="211.9551"/><ellipse cx="201" cy="223.9326" fill="#84BE84" rx="3" ry="3" style="stroke: #038048; stroke-width: 1.0;"/><text fill="#000000" font-family="sans-serif" font-size="11" lengthAdjust="spacingAndGlyphs" textLength="61" x="210" y="226.5898">Experiment</text><!--class Experiment_2--><rect fill="#FEFECE" filter="url(#f15rxonwo1jz3k)" height="73.9102" id="Experiment_2" style="stroke: #A80036; stroke-width: 1.5;" width="146" x="371" y="159"/><ellipse cx="401.3" cy="175" fill="#00FF00" rx="11" ry="11" style="stroke: #A80036; stroke-width: 1.0;"/><path d="M397.0139,168.6069 L399.9357,168.6069 L401.4133,174.0439 L402.8825,168.6069 L405.821,168.6069 L405.821,181 L403.7126,181 L403.7126,171.0723 L402.4011,176.4927 L400.4504,176.4927 L399.1223,171.0723 L399.1223,181 L397.0139,181 Z "/><text fill="#000000" font-family="sans-serif" font-size="12" lengthAdjust="spacingAndGlyphs" textLength="80" x="418.7" y="179.5352">Experiment_2</text><line style="stroke: #A80036; stroke-width: 1.5;" x1="372" x2="516" y1="191" y2="191"/><text fill="#000000" font-family="sans-serif" font-size="11" lengthAdjust="spacingAndGlyphs" textLength="134" x="377" y="205.6348">Experimental description</text><line style="stroke: #A80036; stroke-width: 1.5;" x1="372" x2="516" y1="211.9551" y2="211.9551"/><ellipse cx="382" cy="223.9326" fill="#84BE84" rx="3" ry="3" style="stroke: #038048; stroke-width: 1.0;"/><text fill="#000000" font-family="sans-serif" font-size="11" lengthAdjust="spacingAndGlyphs" textLength="61" x="391" y="226.5898">Experiment</text><!--class Treatment_1--><rect fill="#FEFECE" filter="url(#f15rxonwo1jz3k)" height="73.9102" id="Treatment_1" style="stroke: #A80036; stroke-width: 1.5;" width="132" x="30" y="310"/><ellipse cx="56.7" cy="326" fill="#00FF00" rx="11" ry="11" style="stroke: #A80036; stroke-width: 1.0;"/><path d="M52.4139,319.6069 L55.3357,319.6069 L56.8133,325.0439 L58.2825,319.6069 L61.221,319.6069 L61.221,332 L59.1126,332 L59.1126,322.0723 L57.8011,327.4927 L55.8504,327.4927 L54.5223,322.0723 L54.5223,332 L52.4139,332 Z "/><text fill="#000000" font-family="sans-serif" font-size="12" lengthAdjust="spacingAndGlyphs" textLength="74" x="73.3" y="330.5352">Treatment_1</text><line style="stroke: #A80036; stroke-width: 1.5;" x1="31" x2="161" y1="342" y2="342"/><text fill="#000000" font-family="sans-serif" font-size="11" lengthAdjust="spacingAndGlyphs" textLength="120" x="36" y="356.6348">Treatment Description</text><line style="stroke: #A80036; stroke-width: 1.5;" x1="31" x2="161" y1="362.9551" y2="362.9551"/><ellipse cx="41" cy="374.9326" fill="#84BE84" rx="3" ry="3" style="stroke: #038048; stroke-width: 1.0;"/><text fill="#000000" font-family="sans-serif" font-size="11" lengthAdjust="spacingAndGlyphs" textLength="55" x="50" y="377.5898">Treatment</text><!--class Treatment_n--><rect fill="#FEFECE" filter="url(#f15rxonwo1jz3k)" height="73.9102" id="Treatment_n" style="stroke: #A80036; stroke-width: 1.5;" width="132" x="197" y="310"/><ellipse cx="224.15" cy="326" fill="#00FF00" rx="11" ry="11" style="stroke: #A80036; stroke-width: 1.0;"/><path d="M219.8639,319.6069 L222.7857,319.6069 L224.2633,325.0439 L225.7325,319.6069 L228.671,319.6069 L228.671,332 L226.5626,332 L226.5626,322.0723 L225.2511,327.4927 L223.3004,327.4927 L221.9723,322.0723 L221.9723,332 L219.8639,332 Z "/><text fill="#000000" font-family="sans-serif" font-size="12" lengthAdjust="spacingAndGlyphs" textLength="73" x="240.85" y="330.5352">Treatment_n</text><line style="stroke: #A80036; stroke-width: 1.5;" x1="198" x2="328" y1="342" y2="342"/><text fill="#000000" font-family="sans-serif" font-size="11" lengthAdjust="spacingAndGlyphs" textLength="120" x="203" y="356.6348">Treatment Description</text><line style="stroke: #A80036; stroke-width: 1.5;" x1="198" x2="328" y1="362.9551" y2="362.9551"/><ellipse cx="208" cy="374.9326" fill="#84BE84" rx="3" ry="3" style="stroke: #038048; stroke-width: 1.0;"/><text fill="#000000" font-family="sans-serif" font-size="11" lengthAdjust="spacingAndGlyphs" textLength="55" x="217" y="377.5898">Treatment</text><!--class Treatment_2--><rect fill="#FEFECE" filter="url(#f15rxonwo1jz3k)" height="73.9102" id="Treatment_2" style="stroke: #A80036; stroke-width: 1.5;" width="132" x="364" y="310"/><ellipse cx="390.7" cy="326" fill="#00FF00" rx="11" ry="11" style="stroke: #A80036; stroke-width: 1.0;"/><path d="M386.4139,319.6069 L389.3357,319.6069 L390.8133,325.0439 L392.2825,319.6069 L395.221,319.6069 L395.221,332 L393.1126,332 L393.1126,322.0723 L391.8011,327.4927 L389.8504,327.4927 L388.5223,322.0723 L388.5223,332 L386.4139,332 Z "/><text fill="#000000" font-family="sans-serif" font-size="12" lengthAdjust="spacingAndGlyphs" textLength="74" x="407.3" y="330.5352">Treatment_2</text><line style="stroke: #A80036; stroke-width: 1.5;" x1="365" x2="495" y1="342" y2="342"/><text fill="#000000" font-family="sans-serif" font-size="11" lengthAdjust="spacingAndGlyphs" textLength="120" x="370" y="356.6348">Treatment Description</text><line style="stroke: #A80036; stroke-width: 1.5;" x1="365" x2="495" y1="362.9551" y2="362.9551"/><ellipse cx="375" cy="374.9326" fill="#84BE84" rx="3" ry="3" style="stroke: #038048; stroke-width: 1.0;"/><text fill="#000000" font-family="sans-serif" font-size="11" lengthAdjust="spacingAndGlyphs" textLength="55" x="384" y="377.5898">Treatment</text><!--class Sampling--><!--class Measurement_1--><!--class Measurement_n--><!--class Measurement_2--><!--class RawData--><rect fill="#90EE90" filter="url(#f15rxonwo1jz3k)" height="86.8652" id="RawData" style="stroke: #A80036; stroke-width: 1.5;" width="141" x="192.5" y="763"/><rect fill="#90EE90" height="32" style="stroke: #A80036; stroke-width: 1.5;" width="141" x="192.5" y="763"/><ellipse cx="233.6" cy="779" fill="#DC143C" rx="11" ry="11" style="stroke: #A80036; stroke-width: 1.0;"/><path d="M233.1859,774.8149 L233.1859,782.792 L233.85,782.792 Q235.2943,782.792 235.9086,781.8831 Q236.5229,780.9741 236.5229,778.791 Q236.5229,776.6245 235.9086,775.7197 Q235.2943,774.8149 233.85,774.8149 Z M230.7372,772.6069 L233.3603,772.6069 Q236.3983,772.6069 237.7348,774.0554 Q239.0712,775.5039 239.0712,778.791 Q239.0712,782.0864 237.7348,783.5432 Q236.3983,785 233.3603,785 L230.7372,785 Z "/><text fill="#000000" font-family="sans-serif" font-size="12" lengthAdjust="spacingAndGlyphs" textLength="51" x="253.4" y="783.5352">RawData</text><line style="stroke: #A80036; stroke-width: 1.5;" x1="193.5" x2="332.5" y1="795" y2="795"/><text fill="#000000" font-family="sans-serif" font-size="11" lengthAdjust="spacingAndGlyphs" textLength="103" x="198.5" y="809.6348">Measured Raw Data</text><line style="stroke: #A80036; stroke-width: 1.5;" x1="193.5" x2="332.5" y1="815.9551" y2="815.9551"/><rect fill="#F24D5C" height="6" style="stroke: #C82930; stroke-width: 1.0;" width="6" x="200.5" y="824.9326"/><text fill="#000000" font-family="sans-serif" font-size="11" lengthAdjust="spacingAndGlyphs" textLength="96" x="212.5" y="830.5898">dataCite metadata</text><rect fill="#F24D5C" height="6" style="stroke: #C82930; stroke-width: 1.0;" width="6" x="200.5" y="837.8877"/><text fill="#000000" font-family="sans-serif" font-size="11" lengthAdjust="spacingAndGlyphs" textLength="115" x="212.5" y="843.5449">emeScheme metadata</text><!--class DataExtraction_1--><!--class DataExtraction_n--><!--class DataExtraction_2--><!--class ExtractedData--><rect fill="#90EE90" filter="url(#f15rxonwo1jz3k)" height="86.8652" id="ExtractedData" style="stroke: #A80036; stroke-width: 1.5;" width="141" x="192.5" y="1078"/><rect fill="#90EE90" height="32" style="stroke: #A80036; stroke-width: 1.5;" width="141" x="192.5" y="1078"/><ellipse cx="213.35" cy="1094" fill="#DC143C" rx="11" ry="11" style="stroke: #A80036; stroke-width: 1.0;"/><path d="M212.9359,1089.8149 L212.9359,1097.792 L213.6,1097.792 Q215.0443,1097.792 215.6586,1096.8831 Q216.2729,1095.9741 216.2729,1093.791 Q216.2729,1091.6245 215.6586,1090.7197 Q215.0443,1089.8149 213.6,1089.8149 Z M210.4872,1087.6069 L213.1103,1087.6069 Q216.1483,1087.6069 217.4848,1089.0554 Q218.8212,1090.5039 218.8212,1093.791 Q218.8212,1097.0864 217.4848,1098.5432 Q216.1483,1100 213.1103,1100 L210.4872,1100 Z "/><text fill="#000000" font-family="sans-serif" font-size="12" lengthAdjust="spacingAndGlyphs" textLength="96" x="228.65" y="1098.5352">ExtractedData_1</text><line style="stroke: #A80036; stroke-width: 1.5;" x1="193.5" x2="332.5" y1="1110" y2="1110"/><text fill="#000000" font-family="sans-serif" font-size="11" lengthAdjust="spacingAndGlyphs" textLength="78" x="198.5" y="1124.6348">Extracted Data</text><line style="stroke: #A80036; stroke-width: 1.5;" x1="193.5" x2="332.5" y1="1130.9551" y2="1130.9551"/><rect fill="#F24D5C" height="6" style="stroke: #C82930; stroke-width: 1.0;" width="6" x="200.5" y="1139.9326"/><text fill="#000000" font-family="sans-serif" font-size="11" lengthAdjust="spacingAndGlyphs" textLength="96" x="212.5" y="1145.5898">dataCite metadata</text><rect fill="#F24D5C" height="6" style="stroke: #C82930; stroke-width: 1.0;" width="6" x="200.5" y="1152.8877"/><text fill="#000000" font-family="sans-serif" font-size="11" lengthAdjust="spacingAndGlyphs" textLength="115" x="212.5" y="1158.5449">emeScheme metadata</text><!--link Project to Experiment_1--><path d="M208.1317,90.7741 C182.013,112.5637 151.1823,138.2844 126.5402,158.8421 " fill="none" id="Project-Experiment_1" style="stroke: #A80036; stroke-width: 1.0;"/><polygon fill="#A80036" points="218.2584,82.3259,211.0888,83.0981,209.044,90.0132,216.2136,89.241,218.2584,82.3259" style="stroke: #A80036; stroke-width: 1.0;"/><text fill="#000000" font-family="sans-serif" font-size="13" lengthAdjust="spacingAndGlyphs" textLength="54" x="179" y="125.5684">contains</text><text fill="#000000" font-family="sans-serif" font-size="13" lengthAdjust="spacingAndGlyphs" textLength="8" x="202.1856" y="102.3517">1</text><text fill="#000000" font-family="sans-serif" font-size="13" lengthAdjust="spacingAndGlyphs" textLength="34" x="97.6179" y="148.2136">many</text><!--link Project to Experiment_2--><path d="M317.8683,90.7741 C343.987,112.5637 374.8177,138.2844 399.4598,158.8421 " fill="none" id="Project-Experiment_2" style="stroke: #A80036; stroke-width: 1.0;"/><polygon fill="#A80036" points="307.7416,82.3259,309.7864,89.241,316.956,90.0132,314.9112,83.0981,307.7416,82.3259" style="stroke: #A80036; stroke-width: 1.0;"/><text fill="#000000" font-family="sans-serif" font-size="13" lengthAdjust="spacingAndGlyphs" textLength="54" x="360" y="125.5684">contains</text><text fill="#000000" font-family="sans-serif" font-size="13" lengthAdjust="spacingAndGlyphs" textLength="8" x="306.4894" y="102.3517">1</text><text fill="#000000" font-family="sans-serif" font-size="13" lengthAdjust="spacingAndGlyphs" textLength="34" x="354.1133" y="148.2136">many</text><!--link Project to Experiment_n--><path d="M263,95.4578 C263,116.1797 263,139.7398 263,158.8421 " fill="none" id="Project-Experiment_n" style="stroke: #A80036; stroke-width: 1.0;"/><polygon fill="#A80036" points="263,82.3259,259,88.3259,263,94.3259,267,88.3259,263,82.3259" style="stroke: #A80036; stroke-width: 1.0;"/><text fill="#000000" font-family="sans-serif" font-size="13" lengthAdjust="spacingAndGlyphs" textLength="54" x="264" y="125.5684">contains</text><text fill="#000000" font-family="sans-serif" font-size="13" lengthAdjust="spacingAndGlyphs" textLength="8" x="254.3375" y="102.3517">1</text><text fill="#000000" font-family="sans-serif" font-size="13" lengthAdjust="spacingAndGlyphs" textLength="34" x="225.8656" y="148.2136">many</text><!--link Experiment_n to Treatment_1--><path d="M212.0555,242.0635 C188.0256,263.7912 159.7305,289.3754 137.0951,309.8421 " fill="none" id="Experiment_n-Treatment_1" style="stroke: #A80036; stroke-width: 1.0;"/><polygon fill="#A80036" points="221.7191,233.3259,214.5859,234.383,212.8181,241.3741,219.9513,240.317,221.7191,233.3259" style="stroke: #A80036; stroke-width: 1.0;"/><text fill="#000000" font-family="sans-serif" font-size="13" lengthAdjust="spacingAndGlyphs" textLength="54" x="186" y="276.5684">contains</text><text fill="#000000" font-family="sans-serif" font-size="13" lengthAdjust="spacingAndGlyphs" textLength="8" x="206.2195" y="253.3517">1</text><text fill="#000000" font-family="sans-serif" font-size="13" lengthAdjust="spacingAndGlyphs" textLength="34" x="107.5376" y="299.2136">many</text><!--link Experiment_n to Treatment_2--><path d="M313.9445,242.0635 C337.9744,263.7912 366.2695,289.3754 388.9049,309.8421 " fill="none" id="Experiment_n-Treatment_2" style="stroke: #A80036; stroke-width: 1.0;"/><polygon fill="#A80036" points="304.2809,233.3259,306.0487,240.317,313.1819,241.3741,311.4141,234.383,304.2809,233.3259" style="stroke: #A80036; stroke-width: 1.0;"/><text fill="#000000" font-family="sans-serif" font-size="13" lengthAdjust="spacingAndGlyphs" textLength="54" x="353" y="276.5684">contains</text><text fill="#000000" font-family="sans-serif" font-size="13" lengthAdjust="spacingAndGlyphs" textLength="8" x="302.4555" y="253.3517">1</text><text fill="#000000" font-family="sans-serif" font-size="13" lengthAdjust="spacingAndGlyphs" textLength="34" x="344.1936" y="299.2136">many</text><!--link Experiment_n to Treatment_n--><path d="M263,246.4578 C263,267.1797 263,290.7398 263,309.8421 " fill="none" id="Experiment_n-Treatment_n" style="stroke: #A80036; stroke-width: 1.0;"/><polygon fill="#A80036" points="263,233.3259,259,239.3259,263,245.3259,267,239.3259,263,233.3259" style="stroke: #A80036; stroke-width: 1.0;"/><text fill="#000000" font-family="sans-serif" font-size="13" lengthAdjust="spacingAndGlyphs" textLength="54" x="264" y="276.5684">contains</text><text fill="#000000" font-family="sans-serif" font-size="13" lengthAdjust="spacingAndGlyphs" textLength="8" x="254.3375" y="253.3517">1</text><text fill="#000000" font-family="sans-serif" font-size="13" lengthAdjust="spacingAndGlyphs" textLength="34" x="225.8656" y="299.2136">many</text><!--link Treatment_n to Sampling--><!--link Sampling to Measurement_1--><!--link Sampling to Measurement_2--><!--link Sampling to Measurement_n--><!--link Measurement_n to RawData--><!--link RawData to DataExtraction_1--><!--link RawData to DataExtraction_2--><!--link RawData to DataExtraction_n--><!--link DataExtraction_n to ExtractedData--><!--
@startuml


class Project as "Project" << (P,red) >> #TECHNOLOGY {
  {field} Project description
  {method} - dataCite metadata
}

class Experiment_1 as "Experiment_1" << (M,lime) >> {
  {field} Experimental description
  {method} + Experiment
}

class Experiment_n as "Experiment_n" << (M,lime) >> {
  {field} Experimental description
  {method} + Experiment
}

class Experiment_2 as "Experiment_2" << (M,lime) >> {
  {field} Experimental description
  {method} + Experiment
}

class Treatment_1 as "Treatment_1" << (M,lime) >> {
  {field} Treatment Description
  {method} + Treatment
}

class Treatment_n as "Treatment_n" << (M,lime) >> {
  {field} Treatment Description
  {method} + Treatment
}

class Treatment_2 as "Treatment_2" << (M,lime) >> {
  {field} Treatment Description
  {method} + Treatment
}

class Sampling as "Sampling" << (M,lime) >> {
  {field} Sampling of Microcosms
  {method} + Sampling
}

class Measurement_1 as "Measurement_1" << (M,lime) >> {
  {field} Measurement description
  {method} + Measuring
}


class Measurement_n as "Measurement_n" << (M,lime) >> {
  {field} Measurement description
  {method} + Measuring
}

class Measurement_2 as "Measurement_2" << (M,lime) >> {
  {field} Measurement description
  {method} + Measuring

}
class RawData as "RawData" << (D,crimson) >> #TECHNOLOGY {
  {field} Measured Raw Data
  {method} - dataCite metadata
  {method} - emeScheme metadata
}

class DataExtraction_1 as "DataExtraction_1" << (M,lime) >> {
  {field} Extraction Method
  {method} + DataExtraction
}

class DataExtraction_n as "DataExtraction_n" << (M,lime) >> {
  {field} Extraction Method
  {method} + DataExtraction
}

class DataExtraction_2 as "DataExtraction_2" << (M,lime) >> {
  {field} Extraction Method
  {method} + DataExtraction
}

class ExtractedData as "ExtractedData_1" << (D,crimson) >> #TECHNOLOGY {
  {field} Extracted Data
  {method} - dataCite metadata
  {method} - emeScheme metadata

}


Project "1" *- - "many" Experiment_1 : contains
Project "1" *- - "many" Experiment_2 : contains
Project "1" *- - "many" Experiment_n : contains

Experiment_n "1" *- - "many" Treatment_1 : contains
Experiment_n "1" *- - "many" Treatment_2 : contains
Experiment_n "1" *- - "many" Treatment_n : contains

Treatment_n "1" *- - "1" Sampling : contains

Sampling "1" *- - "many" Measurement_1 : contains
Sampling "1" *- - "many" Measurement_2 : contains
Sampling "1" *- - "many" Measurement_n : contains

Measurement_n "1" *- - "1" RawData : contains

RawData "1" *- - "many" DataExtraction_1 : contains
RawData "1" *- - "many" DataExtraction_2 : contains
RawData "1" *- - "many" DataExtraction_n : contains

DataExtraction_n "1" *- - "1" ExtractedData : contains

hide DataExtraction_1
hide DataExtraction_n
hide DataExtraction_2

hide Measurement_1
hide Measurement_n
hide Measurement_2

hide Sampling


@enduml

PlantUML version 1.2018.14beta10(Unknown compile time)
(GPL source distribution)
Java Runtime: OpenJDK Runtime Environment
JVM: OpenJDK 64-Bit Server VM
Java Version: 11.0.1+13
Operating System: Mac OS X
OS Version: 10.13.6
Default Encoding: UTF-8
Language: en
Country: CH
--></g></svg>