<?xml version="1.0" encoding="UTF-8" standalone="no"?><svg xmlns="http://www.w3.org/2000/svg" xmlns:xlink="http://www.w3.org/1999/xlink" contentScriptType="application/ecmascript" contentStyleType="text/css" height="1175px" preserveAspectRatio="none" style="width:531px;height:1175px;" version="1.1" viewBox="0 0 531 1175" width="531px" zoomAndPan="magnify"><defs><filter height="300%" id="fu80gh8ijjpwu" width="300%" x="-1" y="-1"><feGaussianBlur result="blurOut" stdDeviation="2.0"/><feColorMatrix in="blurOut" result="blurOut2" type="matrix" values="0 0 0 0 0 0 0 0 0 0 0 0 0 0 0 0 0 0 .4 0"/><feOffset dx="4.0" dy="4.0" in="blurOut2" result="blurOut3"/><feBlend in="SourceGraphic" in2="blurOut3" mode="normal"/></filter></defs><g><!--class Project--><rect fill="#90EE90" filter="url(#fu80gh8ijjpwu)" height="73.9102" id="Project" style="stroke: #A80036; stroke-width: 1.5;" width="122" x="202" y="8"/><rect fill="#90EE90" height="32" style="stroke: #A80036; stroke-width: 1.5;" width="122" x="202" y="8"/><ellipse cx="239.5" cy="24" fill="#FF0000" rx="11" ry="11" style="stroke: #A80036; stroke-width: 1.0;"/><path d="M239.2935,19.6655 L239.2935,23.3013 L240.2979,23.3013 Q241.5015,23.3013 241.9871,22.8945 Q242.4727,22.4878 242.4727,21.4834 Q242.4727,20.479 241.9871,20.0723 Q241.5015,19.6655 240.2979,19.6655 Z M236.8447,17.6069 L240.2065,17.6069 Q242.7715,17.6069 243.8962,18.52 Q245.021,19.4331 245.021,21.4834 Q245.021,23.5337 243.8962,24.4468 Q242.7715,25.3599 240.2065,25.3599 L239.2935,25.3599 L239.2935,30 L236.8447,30 Z "/><text fill="#000000" font-family="sans-serif" font-size="12" lengthAdjust="spacingAndGlyphs" textLength="40" x="258.5" y="28.5352">Project</text><line style="stroke: #A80036; stroke-width: 1.5;" x1="203" x2="323" y1="40" y2="40"/><text fill="#000000" font-family="sans-serif" font-size="11" lengthAdjust="spacingAndGlyphs" textLength="101" x="208" y="54.6348">Project description</text><line style="stroke: #A80036; stroke-width: 1.5;" x1="203" x2="323" y1="60.9551" y2="60.9551"/><rect fill="#F24D5C" height="6" style="stroke: #C82930; stroke-width: 1.0;" width="6" x="210" y="69.9326"/><text fill="#000000" font-family="sans-serif" font-size="11" lengthAdjust="spacingAndGlyphs" textLength="96" x="222" y="75.5898">dataCite metadata</text><!--class Experiment_1--><rect fill="#FEFECE" filter="url(#fu80gh8ijjpwu)" height="73.9102" id="Experiment_1" style="stroke: #A80036; stroke-width: 1.5;" width="146" x="9" y="159"/><ellipse cx="39.3" cy="175" fill="#00FF00" rx="11" ry="11" style="stroke: #A80036; stroke-width: 1.0;"/><path d="M35.0139,168.6069 L37.9357,168.6069 L39.4133,174.0439 L40.8825,168.6069 L43.821,168.6069 L43.821,181 L41.7126,181 L41.7126,171.0723 L40.4011,176.4927 L38.4504,176.4927 L37.1223,171.0723 L37.1223,181 L35.0139,181 Z "/><text fill="#000000" font-family="sans-serif" font-size="12" lengthAdjust="spacingAndGlyphs" textLength="80" x="56.7" y="179.5352">Experiment_1</text><line style="stroke: #A80036; stroke-width: 1.5;" x1="10" x2="154" y1="191" y2="191"/><text fill="#000000" font-family="sans-serif" font-size="11" lengthAdjust="spacingAndGlyphs" textLength="134" x="15" y="205.6348">Experimental description</text><line style="stroke: #A80036; stroke-width: 1.5;" x1="10" x2="154" y1="211.9551" y2="211.9551"/><ellipse cx="20" cy="223.9326" fill="#84BE84" rx="3" ry="3" style="stroke: #038048; stroke-width: 1.0;"/><text fill="#000000" font-family="sans-serif" font-size="11" lengthAdjust="spacingAndGlyphs" textLength="61" x="29" y="226.5898">Experiment</text><!--class Experiment_n--><rect fill="#FEFECE" filter="url(#fu80gh8ijjpwu)" height="73.9102" id="Experiment_n" style="stroke: #A80036; stroke-width: 1.5;" width="146" x="190" y="159"/><ellipse cx="220.75" cy="175" fill="#00FF00" rx="11" ry="11" style="stroke: #A80036; stroke-width: 1.0;"/><path d="M216.4639,168.6069 L219.3857,168.6069 L220.8633,174.0439 L222.3325,168.6069 L225.271,168.6069 L225.271,181 L223.1626,181 L223.1626,171.0723 L221.8511,176.4927 L219.9004,176.4927 L218.5723,171.0723 L218.5723,181 L216.4639,181 Z "/><text fill="#000000" font-family="sans-serif" font-size="12" lengthAdjust="spacingAndGlyphs" textLength="79" x="238.25" y="179.5352">Experiment_n</text><line style="stroke: #A80036; stroke-width: 1.5;" x1="191" x2="335" y1="191" y2="191"/><text fill="#000000" font-family="sans-serif" font-size="11" lengthAdjust="spacingAndGlyphs" textLength="134" x="196" y="205.6348">Experimental description</text><line style="stroke: #A80036; stroke-width: 1.5;" x1="191" x2="335" y1="211.9551" y2="211.9551"/><ellipse cx="201" cy="223.9326" fill="#84BE84" rx="3" ry="3" style="stroke: #038048; stroke-width: 1.0;"/><text fill="#000000" font-family="sans-serif" font-size="11" lengthAdjust="spacingAndGlyphs" textLength="61" x="210" y="226.5898">Experiment</text><!--class Experiment_2--><rect fill="#FEFECE" filter="url(#fu80gh8ijjpwu)" height="73.9102" id="Experiment_2" style="stroke: #A80036; stroke-width: 1.5;" width="146" x="371" y="159"/><ellipse cx="401.3" cy="175" fill="#00FF00" rx="11" ry="11" style="stroke: #A80036; stroke-width: 1.0;"/><path d="M397.0139,168.6069 L399.9357,168.6069 L401.4133,174.0439 L402.8825,168.6069 L405.821,168.6069 L405.821,181 L403.7126,181 L403.7126,171.0723 L402.4011,176.4927 L400.4504,176.4927 L399.1223,171.0723 L399.1223,181 L397.0139,181 Z "/><text fill="#000000" font-family="sans-serif" font-size="12" lengthAdjust="spacingAndGlyphs" textLength="80" x="418.7" y="179.5352">Experiment_2</text><line style="stroke: #A80036; stroke-width: 1.5;" x1="372" x2="516" y1="191" y2="191"/><text fill="#000000" font-family="sans-serif" font-size="11" lengthAdjust="spacingAndGlyphs" textLength="134" x="377" y="205.6348">Experimental description</text><line style="stroke: #A80036; stroke-width: 1.5;" x1="372" x2="516" y1="211.9551" y2="211.9551"/><ellipse cx="382" cy="223.9326" fill="#84BE84" rx="3" ry="3" style="stroke: #038048; stroke-width: 1.0;"/><text fill="#000000" font-family="sans-serif" font-size="11" lengthAdjust="spacingAndGlyphs" textLength="61" x="391" y="226.5898">Experiment</text><!--class Treatment_1--><rect fill="#FEFECE" filter="url(#fu80gh8ijjpwu)" height="73.9102" id="Treatment_1" style="stroke: #A80036; stroke-width: 1.5;" width="132" x="30" y="310"/><ellipse cx="56.7" cy="326" fill="#00FF00" rx="11" ry="11" style="stroke: #A80036; stroke-width: 1.0;"/><path d="M52.4139,319.6069 L55.3357,319.6069 L56.8133,325.0439 L58.2825,319.6069 L61.221,319.6069 L61.221,332 L59.1126,332 L59.1126,322.0723 L57.8011,327.4927 L55.8504,327.4927 L54.5223,322.0723 L54.5223,332 L52.4139,332 Z "/><text fill="#000000" font-family="sans-serif" font-size="12" lengthAdjust="spacingAndGlyphs" textLength="74" x="73.3" y="330.5352">Treatment_1</text><line style="stroke: #A80036; stroke-width: 1.5;" x1="31" x2="161" y1="342" y2="342"/><text fill="#000000" font-family="sans-serif" font-size="11" lengthAdjust="spacingAndGlyphs" textLength="120" x="36" y="356.6348">Treatment Description</text><line style="stroke: #A80036; stroke-width: 1.5;" x1="31" x2="161" y1="362.9551" y2="362.9551"/><ellipse cx="41" cy="374.9326" fill="#84BE84" rx="3" ry="3" style="stroke: #038048; stroke-width: 1.0;"/><text fill="#000000" font-family="sans-serif" font-size="11" lengthAdjust="spacingAndGlyphs" textLength="55" x="50" y="377.5898">Treatment</text><!--class Treatment_n--><rect fill="#FEFECE" filter="url(#fu80gh8ijjpwu)" height="73.9102" id="Treatment_n" style="stroke: #A80036; stroke-width: 1.5;" width="132" x="197" y="310"/><ellipse cx="224.15" cy="326" fill="#00FF00" rx="11" ry="11" style="stroke: #A80036; stroke-width: 1.0;"/><path d="M219.8639,319.6069 L222.7857,319.6069 L224.2633,325.0439 L225.7325,319.6069 L228.671,319.6069 L228.671,332 L226.5626,332 L226.5626,322.0723 L225.2511,327.4927 L223.3004,327.4927 L221.9723,322.0723 L221.9723,332 L219.8639,332 Z "/><text fill="#000000" font-family="sans-serif" font-size="12" lengthAdjust="spacingAndGlyphs" textLength="73" x="240.85" y="330.5352">Treatment_n</text><line style="stroke: #A80036; stroke-width: 1.5;" x1="198" x2="328" y1="342" y2="342"/><text fill="#000000" font-family="sans-serif" font-size="11" lengthAdjust="spacingAndGlyphs" textLength="120" x="203" y="356.6348">Treatment Description</text><line style="stroke: #A80036; stroke-width: 1.5;" x1="198" x2="328" y1="362.9551" y2="362.9551"/><ellipse cx="208" cy="374.9326" fill="#84BE84" rx="3" ry="3" style="stroke: #038048; stroke-width: 1.0;"/><text fill="#000000" font-family="sans-serif" font-size="11" lengthAdjust="spacingAndGlyphs" textLength="55" x="217" y="377.5898">Treatment</text><!--class Treatment_2--><rect fill="#FEFECE" filter="url(#fu80gh8ijjpwu)" height="73.9102" id="Treatment_2" style="stroke: #A80036; stroke-width: 1.5;" width="132" x="364" y="310"/><ellipse cx="390.7" cy="326" fill="#00FF00" rx="11" ry="11" style="stroke: #A80036; stroke-width: 1.0;"/><path d="M386.4139,319.6069 L389.3357,319.6069 L390.8133,325.0439 L392.2825,319.6069 L395.221,319.6069 L395.221,332 L393.1126,332 L393.1126,322.0723 L391.8011,327.4927 L389.8504,327.4927 L388.5223,322.0723 L388.5223,332 L386.4139,332 Z "/><text fill="#000000" font-family="sans-serif" font-size="12" lengthAdjust="spacingAndGlyphs" textLength="74" x="407.3" y="330.5352">Treatment_2</text><line style="stroke: #A80036; stroke-width: 1.5;" x1="365" x2="495" y1="342" y2="342"/><text fill="#000000" font-family="sans-serif" font-size="11" lengthAdjust="spacingAndGlyphs" textLength="120" x="370" y="356.6348">Treatment Description</text><line style="stroke: #A80036; stroke-width: 1.5;" x1="365" x2="495" y1="362.9551" y2="362.9551"/><ellipse cx="375" cy="374.9326" fill="#84BE84" rx="3" ry="3" style="stroke: #038048; stroke-width: 1.0;"/><text fill="#000000" font-family="sans-serif" font-size="11" lengthAdjust="spacingAndGlyphs" textLength="55" x="384" y="377.5898">Treatment</text><!--class Sampling--><rect fill="#FEFECE" filter="url(#fu80gh8ijjpwu)" height="73.9102" id="Sampling" style="stroke: #A80036; stroke-width: 1.5;" width="143" x="191.5" y="461"/><ellipse cx="233.05" cy="477" fill="#00FF00" rx="11" ry="11" style="stroke: #A80036; stroke-width: 1.0;"/><path d="M228.7639,470.6069 L231.6857,470.6069 L233.1633,476.0439 L234.6325,470.6069 L237.571,470.6069 L237.571,483 L235.4626,483 L235.4626,473.0723 L234.1511,478.4927 L232.2004,478.4927 L230.8723,473.0723 L230.8723,483 L228.7639,483 Z "/><text fill="#000000" font-family="sans-serif" font-size="12" lengthAdjust="spacingAndGlyphs" textLength="52" x="252.95" y="481.5352">Sampling</text><line style="stroke: #A80036; stroke-width: 1.5;" x1="192.5" x2="333.5" y1="493" y2="493"/><text fill="#000000" font-family="sans-serif" font-size="11" lengthAdjust="spacingAndGlyphs" textLength="131" x="197.5" y="507.6348">Sampling of Microcosms</text><line style="stroke: #A80036; stroke-width: 1.5;" x1="192.5" x2="333.5" y1="513.9551" y2="513.9551"/><ellipse cx="202.5" cy="525.9326" fill="#84BE84" rx="3" ry="3" style="stroke: #038048; stroke-width: 1.0;"/><text fill="#000000" font-family="sans-serif" font-size="11" lengthAdjust="spacingAndGlyphs" textLength="49" x="211.5" y="528.5898">Sampling</text><!--class Measurement_1--><rect fill="#FEFECE" filter="url(#fu80gh8ijjpwu)" height="73.9102" id="Measurement_1" style="stroke: #A80036; stroke-width: 1.5;" width="148" x="6" y="612"/><ellipse cx="31.8" cy="628" fill="#00FF00" rx="11" ry="11" style="stroke: #A80036; stroke-width: 1.0;"/><path d="M27.5139,621.6069 L30.4357,621.6069 L31.9133,627.0439 L33.3825,621.6069 L36.321,621.6069 L36.321,634 L34.2126,634 L34.2126,624.0723 L32.9011,629.4927 L30.9504,629.4927 L29.6223,624.0723 L29.6223,634 L27.5139,634 Z "/><text fill="#000000" font-family="sans-serif" font-size="12" lengthAdjust="spacingAndGlyphs" textLength="92" x="48.2" y="632.5352">Measurement_1</text><line style="stroke: #A80036; stroke-width: 1.5;" x1="7" x2="153" y1="644" y2="644"/><text fill="#000000" font-family="sans-serif" font-size="11" lengthAdjust="spacingAndGlyphs" textLength="136" x="12" y="658.6348">Measurement description</text><line style="stroke: #A80036; stroke-width: 1.5;" x1="7" x2="153" y1="664.9551" y2="664.9551"/><ellipse cx="17" cy="676.9326" fill="#84BE84" rx="3" ry="3" style="stroke: #038048; stroke-width: 1.0;"/><text fill="#000000" font-family="sans-serif" font-size="11" lengthAdjust="spacingAndGlyphs" textLength="56" x="26" y="679.5898">Measuring</text><!--class Measurement_n--><rect fill="#FEFECE" filter="url(#fu80gh8ijjpwu)" height="73.9102" id="Measurement_n" style="stroke: #A80036; stroke-width: 1.5;" width="148" x="189" y="612"/><ellipse cx="215.25" cy="628" fill="#00FF00" rx="11" ry="11" style="stroke: #A80036; stroke-width: 1.0;"/><path d="M210.9639,621.6069 L213.8857,621.6069 L215.3633,627.0439 L216.8325,621.6069 L219.771,621.6069 L219.771,634 L217.6626,634 L217.6626,624.0723 L216.3511,629.4927 L214.4004,629.4927 L213.0723,624.0723 L213.0723,634 L210.9639,634 Z "/><text fill="#000000" font-family="sans-serif" font-size="12" lengthAdjust="spacingAndGlyphs" textLength="91" x="231.75" y="632.5352">Measurement_n</text><line style="stroke: #A80036; stroke-width: 1.5;" x1="190" x2="336" y1="644" y2="644"/><text fill="#000000" font-family="sans-serif" font-size="11" lengthAdjust="spacingAndGlyphs" textLength="136" x="195" y="658.6348">Measurement description</text><line style="stroke: #A80036; stroke-width: 1.5;" x1="190" x2="336" y1="664.9551" y2="664.9551"/><ellipse cx="200" cy="676.9326" fill="#84BE84" rx="3" ry="3" style="stroke: #038048; stroke-width: 1.0;"/><text fill="#000000" font-family="sans-serif" font-size="11" lengthAdjust="spacingAndGlyphs" textLength="56" x="209" y="679.5898">Measuring</text><!--class Measurement_2--><rect fill="#FEFECE" filter="url(#fu80gh8ijjpwu)" height="73.9102" id="Measurement_2" style="stroke: #A80036; stroke-width: 1.5;" width="148" x="372" y="612"/><ellipse cx="397.8" cy="628" fill="#00FF00" rx="11" ry="11" style="stroke: #A80036; stroke-width: 1.0;"/><path d="M393.5139,621.6069 L396.4357,621.6069 L397.9133,627.0439 L399.3825,621.6069 L402.321,621.6069 L402.321,634 L400.2126,634 L400.2126,624.0723 L398.9011,629.4927 L396.9504,629.4927 L395.6223,624.0723 L395.6223,634 L393.5139,634 Z "/><text fill="#000000" font-family="sans-serif" font-size="12" lengthAdjust="spacingAndGlyphs" textLength="92" x="414.2" y="632.5352">Measurement_2</text><line style="stroke: #A80036; stroke-width: 1.5;" x1="373" x2="519" y1="644" y2="644"/><text fill="#000000" font-family="sans-serif" font-size="11" lengthAdjust="spacingAndGlyphs" textLength="136" x="378" y="658.6348">Measurement description</text><line style="stroke: #A80036; stroke-width: 1.5;" x1="373" x2="519" y1="664.9551" y2="664.9551"/><ellipse cx="383" cy="676.9326" fill="#84BE84" rx="3" ry="3" style="stroke: #038048; stroke-width: 1.0;"/><text fill="#000000" font-family="sans-serif" font-size="11" lengthAdjust="spacingAndGlyphs" textLength="56" x="392" y="679.5898">Measuring</text><!--class RawData--><rect fill="#90EE90" filter="url(#fu80gh8ijjpwu)" height="86.8652" id="RawData" style="stroke: #A80036; stroke-width: 1.5;" width="141" x="192.5" y="763"/><rect fill="#90EE90" height="32" style="stroke: #A80036; stroke-width: 1.5;" width="141" x="192.5" y="763"/><ellipse cx="233.6" cy="779" fill="#DC143C" rx="11" ry="11" style="stroke: #A80036; stroke-width: 1.0;"/><path d="M233.1859,774.8149 L233.1859,782.792 L233.85,782.792 Q235.2943,782.792 235.9086,781.8831 Q236.5229,780.9741 236.5229,778.791 Q236.5229,776.6245 235.9086,775.7197 Q235.2943,774.8149 233.85,774.8149 Z M230.7372,772.6069 L233.3603,772.6069 Q236.3983,772.6069 237.7348,774.0554 Q239.0712,775.5039 239.0712,778.791 Q239.0712,782.0864 237.7348,783.5432 Q236.3983,785 233.3603,785 L230.7372,785 Z "/><text fill="#000000" font-family="sans-serif" font-size="12" lengthAdjust="spacingAndGlyphs" textLength="51" x="253.4" y="783.5352">RawData</text><line style="stroke: #A80036; stroke-width: 1.5;" x1="193.5" x2="332.5" y1="795" y2="795"/><text fill="#000000" font-family="sans-serif" font-size="11" lengthAdjust="spacingAndGlyphs" textLength="103" x="198.5" y="809.6348">Measured Raw Data</text><line style="stroke: #A80036; stroke-width: 1.5;" x1="193.5" x2="332.5" y1="815.9551" y2="815.9551"/><rect fill="#F24D5C" height="6" style="stroke: #C82930; stroke-width: 1.0;" width="6" x="200.5" y="824.9326"/><text fill="#000000" font-family="sans-serif" font-size="11" lengthAdjust="spacingAndGlyphs" textLength="96" x="212.5" y="830.5898">dataCite metadata</text><rect fill="#F24D5C" height="6" style="stroke: #C82930; stroke-width: 1.0;" width="6" x="200.5" y="837.8877"/><text fill="#000000" font-family="sans-serif" font-size="11" lengthAdjust="spacingAndGlyphs" textLength="115" x="212.5" y="843.5449">emeScheme metadata</text><!--class DataExtraction_1--><rect fill="#FEFECE" filter="url(#fu80gh8ijjpwu)" height="73.9102" id="DataExtraction_1" style="stroke: #A80036; stroke-width: 1.5;" width="130" x="33" y="927"/><ellipse cx="48" cy="943" fill="#00FF00" rx="11" ry="11" style="stroke: #A80036; stroke-width: 1.0;"/><path d="M43.7139,936.6069 L46.6357,936.6069 L48.1133,942.0439 L49.5825,936.6069 L52.521,936.6069 L52.521,949 L50.4126,949 L50.4126,939.0723 L49.1011,944.4927 L47.1504,944.4927 L45.8223,939.0723 L45.8223,949 L43.7139,949 Z "/><text fill="#000000" font-family="sans-serif" font-size="12" lengthAdjust="spacingAndGlyphs" textLength="98" x="62" y="947.5352">DataExtraction_1</text><line style="stroke: #A80036; stroke-width: 1.5;" x1="34" x2="162" y1="959" y2="959"/><text fill="#000000" font-family="sans-serif" font-size="11" lengthAdjust="spacingAndGlyphs" textLength="98" x="39" y="973.6348">Extraction Method</text><line style="stroke: #A80036; stroke-width: 1.5;" x1="34" x2="162" y1="979.9551" y2="979.9551"/><ellipse cx="44" cy="991.9326" fill="#84BE84" rx="3" ry="3" style="stroke: #038048; stroke-width: 1.0;"/><text fill="#000000" font-family="sans-serif" font-size="11" lengthAdjust="spacingAndGlyphs" textLength="79" x="53" y="994.5898">DataExtraction</text><!--class DataExtraction_n--><rect fill="#FEFECE" filter="url(#fu80gh8ijjpwu)" height="73.9102" id="DataExtraction_n" style="stroke: #A80036; stroke-width: 1.5;" width="129" x="198.5" y="927"/><ellipse cx="213.5" cy="943" fill="#00FF00" rx="11" ry="11" style="stroke: #A80036; stroke-width: 1.0;"/><path d="M209.2139,936.6069 L212.1357,936.6069 L213.6133,942.0439 L215.0825,936.6069 L218.021,936.6069 L218.021,949 L215.9126,949 L215.9126,939.0723 L214.6011,944.4927 L212.6504,944.4927 L211.3223,939.0723 L211.3223,949 L209.2139,949 Z "/><text fill="#000000" font-family="sans-serif" font-size="12" lengthAdjust="spacingAndGlyphs" textLength="97" x="227.5" y="947.5352">DataExtraction_n</text><line style="stroke: #A80036; stroke-width: 1.5;" x1="199.5" x2="326.5" y1="959" y2="959"/><text fill="#000000" font-family="sans-serif" font-size="11" lengthAdjust="spacingAndGlyphs" textLength="98" x="204.5" y="973.6348">Extraction Method</text><line style="stroke: #A80036; stroke-width: 1.5;" x1="199.5" x2="326.5" y1="979.9551" y2="979.9551"/><ellipse cx="209.5" cy="991.9326" fill="#84BE84" rx="3" ry="3" style="stroke: #038048; stroke-width: 1.0;"/><text fill="#000000" font-family="sans-serif" font-size="11" lengthAdjust="spacingAndGlyphs" textLength="79" x="218.5" y="994.5898">DataExtraction</text><!--class DataExtraction_2--><rect fill="#FEFECE" filter="url(#fu80gh8ijjpwu)" height="73.9102" id="DataExtraction_2" style="stroke: #A80036; stroke-width: 1.5;" width="130" x="363" y="927"/><ellipse cx="378" cy="943" fill="#00FF00" rx="11" ry="11" style="stroke: #A80036; stroke-width: 1.0;"/><path d="M373.7139,936.6069 L376.6357,936.6069 L378.1133,942.0439 L379.5825,936.6069 L382.521,936.6069 L382.521,949 L380.4126,949 L380.4126,939.0723 L379.1011,944.4927 L377.1504,944.4927 L375.8223,939.0723 L375.8223,949 L373.7139,949 Z "/><text fill="#000000" font-family="sans-serif" font-size="12" lengthAdjust="spacingAndGlyphs" textLength="98" x="392" y="947.5352">DataExtraction_2</text><line style="stroke: #A80036; stroke-width: 1.5;" x1="364" x2="492" y1="959" y2="959"/><text fill="#000000" font-family="sans-serif" font-size="11" lengthAdjust="spacingAndGlyphs" textLength="98" x="369" y="973.6348">Extraction Method</text><line style="stroke: #A80036; stroke-width: 1.5;" x1="364" x2="492" y1="979.9551" y2="979.9551"/><ellipse cx="374" cy="991.9326" fill="#84BE84" rx="3" ry="3" style="stroke: #038048; stroke-width: 1.0;"/><text fill="#000000" font-family="sans-serif" font-size="11" lengthAdjust="spacingAndGlyphs" textLength="79" x="383" y="994.5898">DataExtraction</text><!--class ExtractedData--><rect fill="#90EE90" filter="url(#fu80gh8ijjpwu)" height="86.8652" id="ExtractedData" style="stroke: #A80036; stroke-width: 1.5;" width="141" x="192.5" y="1078"/><rect fill="#90EE90" height="32" style="stroke: #A80036; stroke-width: 1.5;" width="141" x="192.5" y="1078"/><ellipse cx="213.35" cy="1094" fill="#DC143C" rx="11" ry="11" style="stroke: #A80036; stroke-width: 1.0;"/><path d="M212.9359,1089.8149 L212.9359,1097.792 L213.6,1097.792 Q215.0443,1097.792 215.6586,1096.8831 Q216.2729,1095.9741 216.2729,1093.791 Q216.2729,1091.6245 215.6586,1090.7197 Q215.0443,1089.8149 213.6,1089.8149 Z M210.4872,1087.6069 L213.1103,1087.6069 Q216.1483,1087.6069 217.4848,1089.0554 Q218.8212,1090.5039 218.8212,1093.791 Q218.8212,1097.0864 217.4848,1098.5432 Q216.1483,1100 213.1103,1100 L210.4872,1100 Z "/><text fill="#000000" font-family="sans-serif" font-size="12" lengthAdjust="spacingAndGlyphs" textLength="96" x="228.65" y="1098.5352">ExtractedData_1</text><line style="stroke: #A80036; stroke-width: 1.5;" x1="193.5" x2="332.5" y1="1110" y2="1110"/><text fill="#000000" font-family="sans-serif" font-size="11" lengthAdjust="spacingAndGlyphs" textLength="78" x="198.5" y="1124.6348">Extracted Data</text><line style="stroke: #A80036; stroke-width: 1.5;" x1="193.5" x2="332.5" y1="1130.9551" y2="1130.9551"/><rect fill="#F24D5C" height="6" style="stroke: #C82930; stroke-width: 1.0;" width="6" x="200.5" y="1139.9326"/><text fill="#000000" font-family="sans-serif" font-size="11" lengthAdjust="spacingAndGlyphs" textLength="96" x="212.5" y="1145.5898">dataCite metadata</text><rect fill="#F24D5C" height="6" style="stroke: #C82930; stroke-width: 1.0;" width="6" x="200.5" y="1152.8877"/><text fill="#000000" font-family="sans-serif" font-size="11" lengthAdjust="spacingAndGlyphs" textLength="115" x="212.5" y="1158.5449">emeScheme metadata</text><!--link Project to Experiment_1--><path d="M208.1317,90.7741 C182.013,112.5637 151.1823,138.2844 126.5402,158.8421 " fill="none" id="Project-Experiment_1" style="stroke: #A80036; stroke-width: 1.0;"/><polygon fill="#A80036" points="218.2584,82.3259,211.0888,83.0981,209.044,90.0132,216.2136,89.241,218.2584,82.3259" style="stroke: #A80036; stroke-width: 1.0;"/><text fill="#000000" font-family="sans-serif" font-size="13" lengthAdjust="spacingAndGlyphs" textLength="54" x="179" y="125.5684">contains</text><text fill="#000000" font-family="sans-serif" font-size="13" lengthAdjust="spacingAndGlyphs" textLength="8" x="202.1856" y="102.3517">1</text><text fill="#000000" font-family="sans-serif" font-size="13" lengthAdjust="spacingAndGlyphs" textLength="34" x="97.6179" y="148.2136">many</text><!--link Project to Experiment_2--><path d="M317.8683,90.7741 C343.987,112.5637 374.8177,138.2844 399.4598,158.8421 " fill="none" id="Project-Experiment_2" style="stroke: #A80036; stroke-width: 1.0;"/><polygon fill="#A80036" points="307.7416,82.3259,309.7864,89.241,316.956,90.0132,314.9112,83.0981,307.7416,82.3259" style="stroke: #A80036; stroke-width: 1.0;"/><text fill="#000000" font-family="sans-serif" font-size="13" lengthAdjust="spacingAndGlyphs" textLength="54" x="360" y="125.5684">contains</text><text fill="#000000" font-family="sans-serif" font-size="13" lengthAdjust="spacingAndGlyphs" textLength="8" x="306.4894" y="102.3517">1</text><text fill="#000000" font-family="sans-serif" font-size="13" lengthAdjust="spacingAndGlyphs" textLength="34" x="354.1133" y="148.2136">many</text><!--link Project to Experiment_n--><path d="M263,95.4578 C263,116.1797 263,139.7398 263,158.8421 " fill="none" id="Project-Experiment_n" style="stroke: #A80036; stroke-width: 1.0;"/><polygon fill="#A80036" points="263,82.3259,259,88.3259,263,94.3259,267,88.3259,263,82.3259" style="stroke: #A80036; stroke-width: 1.0;"/><text fill="#000000" font-family="sans-serif" font-size="13" lengthAdjust="spacingAndGlyphs" textLength="54" x="264" y="125.5684">contains</text><text fill="#000000" font-family="sans-serif" font-size="13" lengthAdjust="spacingAndGlyphs" textLength="8" x="254.3375" y="102.3517">1</text><text fill="#000000" font-family="sans-serif" font-size="13" lengthAdjust="spacingAndGlyphs" textLength="34" x="225.8656" y="148.2136">many</text><!--link Experiment_n to Treatment_1--><path d="M212.0555,242.0635 C188.0256,263.7912 159.7305,289.3754 137.0951,309.8421 " fill="none" id="Experiment_n-Treatment_1" style="stroke: #A80036; stroke-width: 1.0;"/><polygon fill="#A80036" points="221.7191,233.3259,214.5859,234.383,212.8181,241.3741,219.9513,240.317,221.7191,233.3259" style="stroke: #A80036; stroke-width: 1.0;"/><text fill="#000000" font-family="sans-serif" font-size="13" lengthAdjust="spacingAndGlyphs" textLength="54" x="186" y="276.5684">contains</text><text fill="#000000" font-family="sans-serif" font-size="13" lengthAdjust="spacingAndGlyphs" textLength="8" x="206.2195" y="253.3517">1</text><text fill="#000000" font-family="sans-serif" font-size="13" lengthAdjust="spacingAndGlyphs" textLength="34" x="107.5376" y="299.2136">many</text><!--link Experiment_n to Treatment_2--><path d="M313.9445,242.0635 C337.9744,263.7912 366.2695,289.3754 388.9049,309.8421 " fill="none" id="Experiment_n-Treatment_2" style="stroke: #A80036; stroke-width: 1.0;"/><polygon fill="#A80036" points="304.2809,233.3259,306.0487,240.317,313.1819,241.3741,311.4141,234.383,304.2809,233.3259" style="stroke: #A80036; stroke-width: 1.0;"/><text fill="#000000" font-family="sans-serif" font-size="13" lengthAdjust="spacingAndGlyphs" textLength="54" x="353" y="276.5684">contains</text><text fill="#000000" font-family="sans-serif" font-size="13" lengthAdjust="spacingAndGlyphs" textLength="8" x="302.4555" y="253.3517">1</text><text fill="#000000" font-family="sans-serif" font-size="13" lengthAdjust="spacingAndGlyphs" textLength="34" x="344.1936" y="299.2136">many</text><!--link Experiment_n to Treatment_n--><path d="M263,246.4578 C263,267.1797 263,290.7398 263,309.8421 " fill="none" id="Experiment_n-Treatment_n" style="stroke: #A80036; stroke-width: 1.0;"/><polygon fill="#A80036" points="263,233.3259,259,239.3259,263,245.3259,267,239.3259,263,233.3259" style="stroke: #A80036; stroke-width: 1.0;"/><text fill="#000000" font-family="sans-serif" font-size="13" lengthAdjust="spacingAndGlyphs" textLength="54" x="264" y="276.5684">contains</text><text fill="#000000" font-family="sans-serif" font-size="13" lengthAdjust="spacingAndGlyphs" textLength="8" x="254.3375" y="253.3517">1</text><text fill="#000000" font-family="sans-serif" font-size="13" lengthAdjust="spacingAndGlyphs" textLength="34" x="225.8656" y="299.2136">many</text><!--link Treatment_n to Sampling--><path d="M263,397.4578 C263,418.1797 263,441.7398 263,460.8421 " fill="none" id="Treatment_n-Sampling" style="stroke: #A80036; stroke-width: 1.0;"/><polygon fill="#A80036" points="263,384.3259,259,390.3259,263,396.3259,267,390.3259,263,384.3259" style="stroke: #A80036; stroke-width: 1.0;"/><text fill="#000000" font-family="sans-serif" font-size="13" lengthAdjust="spacingAndGlyphs" textLength="54" x="264" y="427.5684">contains</text><text fill="#000000" font-family="sans-serif" font-size="13" lengthAdjust="spacingAndGlyphs" textLength="8" x="254.3375" y="404.3517">1</text><text fill="#000000" font-family="sans-serif" font-size="13" lengthAdjust="spacingAndGlyphs" textLength="8" x="254.2625" y="450.2136">1</text><!--link Sampling to Measurement_1--><path d="M207.5255,543.7741 C181.1181,565.5637 149.9467,591.2844 125.0324,611.8421 " fill="none" id="Sampling-Measurement_1" style="stroke: #A80036; stroke-width: 1.0;"/><polygon fill="#A80036" points="217.764,535.3259,210.5903,536.0593,208.5082,542.9633,215.6819,542.2299,217.764,535.3259" style="stroke: #A80036; stroke-width: 1.0;"/><text fill="#000000" font-family="sans-serif" font-size="13" lengthAdjust="spacingAndGlyphs" textLength="54" x="178" y="578.5684">contains</text><text fill="#000000" font-family="sans-serif" font-size="13" lengthAdjust="spacingAndGlyphs" textLength="8" x="201.6093" y="555.3517">1</text><text fill="#000000" font-family="sans-serif" font-size="13" lengthAdjust="spacingAndGlyphs" textLength="34" x="96.2009" y="601.2136">many</text><!--link Sampling to Measurement_2--><path d="M318.4745,543.7741 C344.8819,565.5637 376.0533,591.2844 400.9676,611.8421 " fill="none" id="Sampling-Measurement_2" style="stroke: #A80036; stroke-width: 1.0;"/><polygon fill="#A80036" points="308.236,535.3259,310.3181,542.2299,317.4918,542.9633,315.4097,536.0593,308.236,535.3259" style="stroke: #A80036; stroke-width: 1.0;"/><text fill="#000000" font-family="sans-serif" font-size="13" lengthAdjust="spacingAndGlyphs" textLength="54" x="361" y="578.5684">contains</text><text fill="#000000" font-family="sans-serif" font-size="13" lengthAdjust="spacingAndGlyphs" textLength="8" x="307.0657" y="555.3517">1</text><text fill="#000000" font-family="sans-serif" font-size="13" lengthAdjust="spacingAndGlyphs" textLength="34" x="355.5304" y="601.2136">many</text><!--link Sampling to Measurement_n--><path d="M263,548.4578 C263,569.1797 263,592.7398 263,611.8421 " fill="none" id="Sampling-Measurement_n" style="stroke: #A80036; stroke-width: 1.0;"/><polygon fill="#A80036" points="263,535.3259,259,541.3259,263,547.3259,267,541.3259,263,535.3259" style="stroke: #A80036; stroke-width: 1.0;"/><text fill="#000000" font-family="sans-serif" font-size="13" lengthAdjust="spacingAndGlyphs" textLength="54" x="264" y="578.5684">contains</text><text fill="#000000" font-family="sans-serif" font-size="13" lengthAdjust="spacingAndGlyphs" textLength="8" x="254.3375" y="555.3517">1</text><text fill="#000000" font-family="sans-serif" font-size="13" lengthAdjust="spacingAndGlyphs" textLength="34" x="225.8656" y="601.2136">many</text><!--link Measurement_n to RawData--><path d="M263,699.5389 C263,719.8863 263,743.129 263,762.7386 " fill="none" id="Measurement_n-RawData" style="stroke: #A80036; stroke-width: 1.0;"/><polygon fill="#A80036" points="263,686.3253,259,692.3253,263,698.3253,267,692.3253,263,686.3253" style="stroke: #A80036; stroke-width: 1.0;"/><text fill="#000000" font-family="sans-serif" font-size="13" lengthAdjust="spacingAndGlyphs" textLength="54" x="264" y="729.5684">contains</text><text fill="#000000" font-family="sans-serif" font-size="13" lengthAdjust="spacingAndGlyphs" textLength="8" x="254.3375" y="706.351">1</text><text fill="#000000" font-family="sans-serif" font-size="13" lengthAdjust="spacingAndGlyphs" textLength="8" x="254.3625" y="752.1727">1</text><!--link RawData to DataExtraction_1--><path d="M207.356,859.6147 C184.2562,881.6645 158.0035,906.7239 137.0112,926.762 " fill="none" id="RawData-DataExtraction_1" style="stroke: #A80036; stroke-width: 1.0;"/><polygon fill="#A80036" points="217.0383,850.3725,209.9363,851.6219,208.358,858.6582,215.4601,857.4088,217.0383,850.3725" style="stroke: #A80036; stroke-width: 1.0;"/><text fill="#000000" font-family="sans-serif" font-size="13" lengthAdjust="spacingAndGlyphs" textLength="54" x="187" y="893.5684">contains</text><text fill="#000000" font-family="sans-serif" font-size="13" lengthAdjust="spacingAndGlyphs" textLength="8" x="201.7002" y="870.5189">1</text><text fill="#000000" font-family="sans-serif" font-size="13" lengthAdjust="spacingAndGlyphs" textLength="34" x="107.0695" y="916.1187">many</text><!--link RawData to DataExtraction_2--><path d="M318.644,859.6147 C341.7438,881.6645 367.9965,906.7239 388.9888,926.762 " fill="none" id="RawData-DataExtraction_2" style="stroke: #A80036; stroke-width: 1.0;"/><polygon fill="#A80036" points="308.9617,850.3725,310.5399,857.4088,317.642,858.6582,316.0637,851.6219,308.9617,850.3725" style="stroke: #A80036; stroke-width: 1.0;"/><text fill="#000000" font-family="sans-serif" font-size="13" lengthAdjust="spacingAndGlyphs" textLength="54" x="357" y="893.5684">contains</text><text fill="#000000" font-family="sans-serif" font-size="13" lengthAdjust="spacingAndGlyphs" textLength="8" x="307.1248" y="870.5189">1</text><text fill="#000000" font-family="sans-serif" font-size="13" lengthAdjust="spacingAndGlyphs" textLength="34" x="344.6617" y="916.1187">many</text><!--link RawData to DataExtraction_n--><path d="M263,863.4826 C263,884.5563 263,907.8868 263,926.762 " fill="none" id="RawData-DataExtraction_n" style="stroke: #A80036; stroke-width: 1.0;"/><polygon fill="#A80036" points="263,850.3725,259,856.3725,263,862.3725,267,856.3725,263,850.3725" style="stroke: #A80036; stroke-width: 1.0;"/><text fill="#000000" font-family="sans-serif" font-size="13" lengthAdjust="spacingAndGlyphs" textLength="54" x="264" y="893.5684">contains</text><text fill="#000000" font-family="sans-serif" font-size="13" lengthAdjust="spacingAndGlyphs" textLength="8" x="254.4125" y="870.5189">1</text><text fill="#000000" font-family="sans-serif" font-size="13" lengthAdjust="spacingAndGlyphs" textLength="34" x="225.8656" y="916.1187">many</text><!--link DataExtraction_n to ExtractedData--><path d="M263,1014.5389 C263,1034.8863 263,1058.129 263,1077.7386 " fill="none" id="DataExtraction_n-ExtractedData" style="stroke: #A80036; stroke-width: 1.0;"/><polygon fill="#A80036" points="263,1001.3253,259,1007.3253,263,1013.3253,267,1007.3253,263,1001.3253" style="stroke: #A80036; stroke-width: 1.0;"/><text fill="#000000" font-family="sans-serif" font-size="13" lengthAdjust="spacingAndGlyphs" textLength="54" x="264" y="1044.5684">contains</text><text fill="#000000" font-family="sans-serif" font-size="13" lengthAdjust="spacingAndGlyphs" textLength="8" x="254.3375" y="1021.351">1</text><text fill="#000000" font-family="sans-serif" font-size="13" lengthAdjust="spacingAndGlyphs" textLength="8" x="254.3625" y="1067.1727">1</text><!--
@startuml


class Project as "Project" << (P,red) >> #TECHNOLOGY {
  {field} Project description
  {method} - dataCite metadata
}

class Experiment_1 as "Experiment_1" << (M,lime) >> {
  {field} Experimental description
  {method} + Experiment
}

class Experiment_n as "Experiment_n" << (M,lime) >> {
  {field} Experimental description
  {method} + Experiment
}

class Experiment_2 as "Experiment_2" << (M,lime) >> {
  {field} Experimental description
  {method} + Experiment
}

class Treatment_1 as "Treatment_1" << (M,lime) >> {
  {field} Treatment Description
  {method} + Treatment
}

class Treatment_n as "Treatment_n" << (M,lime) >> {
  {field} Treatment Description
  {method} + Treatment
}

class Treatment_2 as "Treatment_2" << (M,lime) >> {
  {field} Treatment Description
  {method} + Treatment
}

class Sampling as "Sampling" << (M,lime) >> {
  {field} Sampling of Microcosms
  {method} + Sampling
}

class Measurement_1 as "Measurement_1" << (M,lime) >> {
  {field} Measurement description
  {method} + Measuring
}


class Measurement_n as "Measurement_n" << (M,lime) >> {
  {field} Measurement description
  {method} + Measuring
}

class Measurement_2 as "Measurement_2" << (M,lime) >> {
  {field} Measurement description
  {method} + Measuring

}
class RawData as "RawData" << (D,crimson) >> #TECHNOLOGY {
  {field} Measured Raw Data
  {method} - dataCite metadata
  {method} - emeScheme metadata
}

class DataExtraction_1 as "DataExtraction_1" << (M,lime) >> {
  {field} Extraction Method
  {method} + DataExtraction
}

class DataExtraction_n as "DataExtraction_n" << (M,lime) >> {
  {field} Extraction Method
  {method} + DataExtraction
}

class DataExtraction_2 as "DataExtraction_2" << (M,lime) >> {
  {field} Extraction Method
  {method} + DataExtraction
}

class ExtractedData as "ExtractedData_1" << (D,crimson) >> #TECHNOLOGY {
  {field} Extracted Data
  {method} - dataCite metadata
  {method} - emeScheme metadata

}


Project "1" *- - "many" Experiment_1 : contains
Project "1" *- - "many" Experiment_2 : contains
Project "1" *- - "many" Experiment_n : contains

Experiment_n "1" *- - "many" Treatment_1 : contains
Experiment_n "1" *- - "many" Treatment_2 : contains
Experiment_n "1" *- - "many" Treatment_n : contains

Treatment_n "1" *- - "1" Sampling : contains

Sampling "1" *- - "many" Measurement_1 : contains
Sampling "1" *- - "many" Measurement_2 : contains
Sampling "1" *- - "many" Measurement_n : contains

Measurement_n "1" *- - "1" RawData : contains

RawData "1" *- - "many" DataExtraction_1 : contains
RawData "1" *- - "many" DataExtraction_2 : contains
RawData "1" *- - "many" DataExtraction_n : contains

DataExtraction_n "1" *- - "1" ExtractedData : contains


@enduml

PlantUML version 1.2018.14beta10(Unknown compile time)
(GPL source distribution)
Java Runtime: OpenJDK Runtime Environment
JVM: OpenJDK 64-Bit Server VM
Java Version: 11.0.1+13
Operating System: Mac OS X
OS Version: 10.13.6
Default Encoding: UTF-8
Language: en
Country: CH
--></g></svg>